<svg xmlns="http://www.w3.org/2000/svg" viewBox="0 0 32 32" role="img" aria-labelledby="titel">
  <title id="titel">Ledsen chibi-avatar</title>
  <g stroke="#38251F" stroke-width="1.5" stroke-linecap="round" stroke-linejoin="round">
    <path fill="#FCD0A1" d="M5 17C0 15 1 23 5 23M27 17C32 15 31 23 27 23"/>
    <ellipse fill="#FFE0BD" cx="16" cy="18" rx="12" ry="12"/>
    <path fill="#563629" d="M4 16L3 10L6 10L5 5L10 6L13 2L17 5L23 3L23 7L28 8L27 16L23 12L21 16L17 10L13 14L11 10L7 15L7 12Z"/>
    <path fill="none" stroke="#986249" d="M8 8L11 8M16 6L20 8"/>
    <path fill="none" d="M8 15L12 14M20 14L24 15"/>
    <ellipse fill="#FFF" cx="10.5" cy="20" rx="3" ry="4"/>
    <ellipse fill="#FFF" cx="21.5" cy="20" rx="3" ry="4"/>
    <path fill="#713F2B" stroke="none" d="M10.5 17.5a2 3 0 1 0 0 6a2 3 0 1 0 0-6M21.5 17.5a2 3 0 1 0 0 6a2 3 0 1 0 0-6"/>
    <path fill="none" d="M13 28Q16 24 19 28"/>
    <path fill="#83D8FA" stroke="#377FAD" stroke-width="1" d="M24 22Q20 27 24 28Q28 27 24 22Z"/>
  </g>
  <g fill="#FFF"><circle cx="10" cy="18.5" r="1.2"/><circle cx="21" cy="18.5" r="1.2"/><circle cx="11.5" cy="22" r=".6"/><circle cx="22.5" cy="22" r=".6"/><circle cx="23.5" cy="26" r=".7"/></g>
</svg>
